<svg xmlns="http://www.w3.org/2000/svg" viewBox="0 0 512 512"><path d="M402.2 29c-16.6-18.7-39.7-29-64.9-29-28.2 0-52.6 13.3-70.6 38.5-1.4 1.9-2.6 3.8-3.8 5.6-1.2-1.9-2.4-3.8-3.8-5.6C241 13.3 216.6 0 188.4 0c-25.2 0-48.3 10.3-64.9 29C107.7 46.7 99 70.4 99 95.8c0 27.5 10.7 52.9 33.6 79.9 20 23.6 48.7 47.8 81.9 75.8 12.3 10.4 25 21.1 38.5 32.8 2.8 2.4 6.3 3.7 9.8 3.7 3.5 0 7-1.2 9.8-3.7 13.5-11.7 26.2-22.4 38.5-32.8 21.3-18 39.8-33.6 55.8-48.6 31-29.3 59.8-62.5 59.8-107.1 0-25.4-8.7-49.1-24.5-66.8zm-55.9 152c-15.4 14.5-33.5 29.8-54.5 47.5-9.3 7.9-18.9 16-28.9 24.6-10-8.6-19.6-16.7-28.9-24.6-65.5-55.1-105-88.4-105-132.7 0-37.5 25.5-65.8 59.4-65.8 18.1 0 33.5 8.5 45.7 25.3 10.1 13.8 14.2 28.1 14.2 28.2 1.8 6.5 7.7 11 14.5 11s12.7-4.5 14.5-11c.1-.5 15.3-53.5 60-53.5 33.9 0 59.4 28.3 59.4 65.8 0 27.1-14.2 51-50.4 85.2zM467 302c-12.4 0-24.4 5.2-32.9 14.3L390 363.7c-5.7-18.3-22.8-31.7-43-31.7h-69.3c-9.7 0-19.1-3.5-26.3-9.9-39.2-34.5-98-34.8-137.6-1C105.7 309.6 92.2 302 77 302H15c-8.3 0-15 6.7-15 15v180c0 8.3 6.7 15 15 15h62c13.5 0 25.6-6 33.8-15.4l8.9 2.5c30.4 8.5 61.8 12.9 93.3 12.9h134c32.9 0 64.3-15.7 84-42l72-96c5.9-7.8 9-17.2 9-27-.1-24.8-20.2-45-45-45zM92 467c0 8.3-6.7 15-15 15H30V332h47c8.3 0 15 6.7 15 15v120zm387-111l-72 96c-14.1 18.8-36.5 30-60 30H213.1c-28.8 0-57.5-4-85.2-11.7l-5.9-1.6V353.8l10.5-9.2c28.2-24.9 70.8-24.9 99.1 0 12.8 11.2 29.1 17.4 46.1 17.4H347c8.3 0 15 6.7 15 15s-6.7 15-15 15H240.4c-8.3 0-15 6.7-15 15s6.7 15 15 15H357c12.4 0 24.4-5.2 32.9-14.3l66-70.9c2.9-3.1 6.8-4.8 11-4.8 8.3 0 15 6.7 15 15 .1 3.3-1 6.4-2.9 9z" fill="#fff"/></svg>