<svg xmlns="http://www.w3.org/2000/svg" viewBox="0 0 30.5 30.5"><path d="M30.4 13.6C27.7 7.4 22.9 2.6 16.8.1c-.5-.2-1.1 0-1.3.6-.2.5 0 1.1.5 1.3 5.6 2.3 10 6.8 12.5 12.4.2.4.5.6.9.6.1 0 .3 0 .4-.1.6-.2.8-.8.6-1.3zM15.6 7.4c3.4 1.4 6.1 4.1 7.6 7.5.2.4.5.6.9.6.1 0 .3 0 .4-.1.5-.2.7-.8.5-1.3-1.7-3.9-4.8-6.9-8.6-8.5-.5-.2-1 0-1.2.5-.3.5-.1 1.1.4 1.3zm9.6 11.9c-.5-.5-1.2-.8-1.8-.8-.6 0-1.2.3-1.8.8l-2.5 2.5c-.1.1-.3.2-.4.2-.1 0-.2 0-.3-.1-.5-.3-1.1-.5-1.6-.8-2.4-1.5-4.4-3.4-6.1-5.6-.9-1.1-1.7-2.2-2.2-3.5-.1-.3-.1-.4.1-.6L11 9c1.1-1.1 1.1-2.5 0-3.6L9.1 3.5l-2-2c-.4-.7-1-1-1.6-1-.6 0-1.2.3-1.8.8L1.3 3.7C.5 4.5.1 5.4 0 6.5c-.1 1.7.3 3.3.9 4.9 1.2 3.3 3.1 6.2 5.3 8.8 3 3.6 6.7 6.5 10.9 8.5 1.9.9 3.9 1.6 6 1.8h.4c1.3 0 2.5-.4 3.4-1.5.7-.8 1.5-1.5 2.2-2.3 1.1-1.1 1.1-2.5 0-3.6-1.2-1.2-2.6-2.5-3.9-3.8zm2.5 6.1l-.7.7c-.5.5-1.1 1-1.6 1.6-.5.6-1.1.8-1.9.8h-.3c-1.6-.1-3.2-.6-5.3-1.6-3.9-1.9-7.4-4.6-10.2-8-2.3-2.7-3.9-5.4-5-8.3-.5-1.6-.8-2.8-.7-4 0-.6.2-1 .6-1.4l1.5-1.5 1-1c.2-.2.3-.2.4-.2 0 0 .2 0 .4.2.4.5.8.9 1.3 1.3l.7.7 1 1c.3.3.6.6.9 1 .4.4.3.4 0 .8l-.4.2c-.7.7-1.3 1.4-2.1 2.1-.8.8-1 1.8-.6 2.8.6 1.3 1.4 2.6 2.5 4 2.1 2.6 4.3 4.5 6.6 6 .4.2.8.4 1.1.6.2.1.4.2.5.3.4.2.8.3 1.3.3s1.2-.1 1.8-.8l2.4-2.4c.2-.2.3-.2.3-.2s.2 0 .3.2l3.9 3.9c.7.4.7.5.3.9z" fill="#fff"/></svg>