<svg version="1.1" id="Icons" xmlns="http://www.w3.org/2000/svg" x="0" y="0" viewBox="0 0 26 32.4" xml:space="preserve"><style>.st0{fill:#fff}</style><g id="Map_pin_1_"><path class="st0" d="M13 0C5.8 0 0 5.8 0 13c0 6.2 6.7 13.6 12.3 18.7l.7.6.7-.6C19.9 25.7 26 19.3 26 13c0-7.2-5.8-13-13-13zm0 29.6C5.9 23 2 17.1 2 13 2 6.9 6.9 2 13 2s11 4.9 11 11c0 5.4-5.3 11.1-11 16.6z"/><path class="st0" d="M13 8c-2.8 0-5 2.2-5 5s2.2 5 5 5 5-2.2 5-5-2.2-5-5-5zm0 8c-1.7 0-3-1.3-3-3s1.3-3 3-3 3 1.3 3 3-1.3 3-3 3z"/></g></svg>