<svg version="1.1" id="Icons" xmlns="http://www.w3.org/2000/svg" x="0" y="0" viewBox="0 0 32 23" xml:space="preserve"><style>.st0{fill:#fff}</style><g id="Mail_2_1_"><path class="st0" d="M28 0H4C1.8 0 0 1.8 0 4v15c0 2.2 1.8 4 4 4h24c2.2 0 4-1.8 4-4V4c0-2.2-1.8-4-4-4zm2 19c0 1.1-.9 2-2 2H4c-1.1 0-2-.9-2-2V4c0-1.1.9-2 2-2h24c1.1 0 2 .9 2 2v15z"/><path class="st0" d="M27.8 5.4c-.3-.4-1-.5-1.4-.1L16 13.7 5.6 5.2c-.4-.3-1-.3-1.4.2-.3.4-.3 1 .2 1.4l11 9c.2.2.4.2.6.2s.4-.1.6-.2l11-9c.5-.4.5-1 .2-1.4zm-4.1 7.9c-.4-.4-1-.4-1.4 0-.4.4-.4 1 0 1.4l4 4c.2.2.5.3.7.3.3 0 .5-.1.7-.3.4-.4.4-1 0-1.4l-4-4zm-15.4 0l-4 4c-.4.4-.4 1 0 1.4.2.2.4.3.7.3.3 0 .5-.1.7-.3l4-4c.4-.4.4-1 0-1.4-.4-.4-1-.4-1.4 0z"/></g></svg>