<svg version="1.1" id="Isolation_Mode" xmlns="http://www.w3.org/2000/svg" x="0" y="0" viewBox="0 0 34.8 34.6" xml:space="preserve"><style>.st0{fill:#fff}</style><path class="st0" d="M17.4 19.2c5.3 0 9.6-4.3 9.6-9.6S22.7 0 17.4 0 7.8 4.3 7.8 9.6s4.3 9.6 9.6 9.6zm9.6 2.9h-3.4c-.8 0-1.5.4-1.9 1l-2.4 3.4c-.9 1.3-2.9 1.3-3.8 0l-2.3-3.4c-.4-.6-1.2-1-1.9-1H7.8C3.5 22.1 0 25.6 0 30v3.5c0 .6.5 1.2 1.2 1.2h32.5c.6 0 1.2-.5 1.2-1.2V30c-.1-4.4-3.6-7.9-7.9-7.9zm3.8 7.6c0 .3-.2.5-.5.5h-1.8V32c0 .3-.2.5-.5.5h-1.5c-.3 0-.5-.2-.5-.5v-1.8h-1.8c-.3 0-.5-.2-.5-.5v-1.5c0-.3.2-.5.5-.5H26v-1.8c0-.3.2-.5.5-.5H28c.3 0 .5.2.5.5v1.8h1.8c.3 0 .5.2.5.5v1.5z"/><path class="st0" d="M18.6 22h-2c-.7 0-1.2.6-1.2 1.3 0 .7.6 1.3 1.2 1.3h2c.7 0 1.3-.6 1.3-1.3-.1-.8-.7-1.3-1.3-1.3z"/></svg>